<svg width="25" height="25" viewBox="0 0 25 25" fill="none" xmlns="http://www.w3.org/2000/svg">
<path d="M13.5417 9.37492C13.5417 9.65119 13.432 9.91614 13.2366 10.1115C13.0413 10.3068 12.7763 10.4166 12.5 10.4166C12.2238 10.4166 11.9588 10.3068 11.7635 10.1115C11.5681 9.91614 11.4584 9.65119 11.4584 9.37492C11.4584 9.09865 11.5681 8.8337 11.7635 8.63835C11.9588 8.443 12.2238 8.33325 12.5 8.33325C12.7763 8.33325 13.0413 8.443 13.2366 8.63835C13.432 8.8337 13.5417 9.09865 13.5417 9.37492Z" stroke="#3665FC" stroke-width="2" stroke-linejoin="round"/>
<path d="M18.2292 9.89579C18.2292 13.0604 16.1459 16.6666 12.5 20.8333C8.85421 16.6666 6.77087 13.0604 6.77087 9.89579C6.77087 8.37632 7.37448 6.91909 8.44891 5.84466C9.52333 4.77023 10.9806 4.16663 12.5 4.16663C14.0195 4.16663 15.4767 4.77023 16.5512 5.84466C17.6256 6.91909 18.2292 8.37632 18.2292 9.89579Z" stroke="#3665FC" stroke-width="2" stroke-linejoin="round"/>
</svg>
